<mxfile host="app.diagrams.net" modified="2024-06-01T09:58:51.839Z" agent="Mozilla/5.0 (Windows NT 10.0; Win64; x64) AppleWebKit/537.36 (KHTML, like Gecko) Chrome/125.0.0.0 Safari/537.36" etag="NnQp1eX9vnSd4ymLXSnE" version="24.4.13" type="github">
  <diagram name="Page-1" id="_sgSFtyyfj8ZUJkelbsT">
    <mxGraphModel dx="1050" dy="565" grid="0" gridSize="10" guides="1" tooltips="1" connect="1" arrows="1" fold="1" page="1" pageScale="1" pageWidth="1169" pageHeight="1654" background="#FFFFFF" math="0" shadow="0">
      <root>
        <mxCell id="0" />
        <mxCell id="1" parent="0" />
        <mxCell id="ufyZAWr4dvzUXM7paTKl-1" value="AWS Cloud" style="points=[[0,0],[0.25,0],[0.5,0],[0.75,0],[1,0],[1,0.25],[1,0.5],[1,0.75],[1,1],[0.75,1],[0.5,1],[0.25,1],[0,1],[0,0.75],[0,0.5],[0,0.25]];outlineConnect=0;gradientColor=none;html=1;whiteSpace=wrap;fontSize=12;fontStyle=0;container=1;pointerEvents=0;collapsible=0;recursiveResize=0;shape=mxgraph.aws4.group;grIcon=mxgraph.aws4.group_aws_cloud;strokeColor=#232F3E;fillColor=none;verticalAlign=top;align=left;spacingLeft=30;fontColor=#232F3E;dashed=0;" vertex="1" parent="1">
          <mxGeometry x="80" y="559" width="1000" height="560" as="geometry" />
        </mxCell>
        <mxCell id="ufyZAWr4dvzUXM7paTKl-2" value="VPC" style="points=[[0,0],[0.25,0],[0.5,0],[0.75,0],[1,0],[1,0.25],[1,0.5],[1,0.75],[1,1],[0.75,1],[0.5,1],[0.25,1],[0,1],[0,0.75],[0,0.5],[0,0.25]];outlineConnect=0;gradientColor=none;html=1;whiteSpace=wrap;fontSize=12;fontStyle=0;container=1;pointerEvents=0;collapsible=0;recursiveResize=0;shape=mxgraph.aws4.group;grIcon=mxgraph.aws4.group_vpc2;strokeColor=#8C4FFF;fillColor=none;verticalAlign=top;align=left;spacingLeft=30;fontColor=#AAB7B8;dashed=0;" vertex="1" parent="ufyZAWr4dvzUXM7paTKl-1">
          <mxGeometry x="40" y="41" width="920" height="479" as="geometry" />
        </mxCell>
        <mxCell id="ufyZAWr4dvzUXM7paTKl-4" value="Availability zone" style="sketch=0;outlineConnect=0;gradientColor=none;html=1;whiteSpace=wrap;fontSize=12;fontStyle=0;shape=mxgraph.aws4.group;grIcon=mxgraph.aws4.group_availability_zone;strokeColor=#545B64;fillColor=none;verticalAlign=top;align=left;spacingLeft=30;fontColor=#545B64;dashed=1;" vertex="1" parent="ufyZAWr4dvzUXM7paTKl-2">
          <mxGeometry x="520" y="40" width="360" height="400" as="geometry" />
        </mxCell>
        <mxCell id="ufyZAWr4dvzUXM7paTKl-5" value="Public subnet" style="points=[[0,0],[0.25,0],[0.5,0],[0.75,0],[1,0],[1,0.25],[1,0.5],[1,0.75],[1,1],[0.75,1],[0.5,1],[0.25,1],[0,1],[0,0.75],[0,0.5],[0,0.25]];outlineConnect=0;gradientColor=none;html=1;whiteSpace=wrap;fontSize=12;fontStyle=0;container=1;pointerEvents=0;collapsible=0;recursiveResize=0;shape=mxgraph.aws4.group;grIcon=mxgraph.aws4.group_security_group;grStroke=0;strokeColor=#7AA116;fillColor=#F2F6E8;verticalAlign=top;align=left;spacingLeft=30;fontColor=#248814;dashed=0;" vertex="1" parent="ufyZAWr4dvzUXM7paTKl-2">
          <mxGeometry x="80" y="80" width="280" height="120" as="geometry" />
        </mxCell>
        <mxCell id="ufyZAWr4dvzUXM7paTKl-6" value="Private subnet" style="points=[[0,0],[0.25,0],[0.5,0],[0.75,0],[1,0],[1,0.25],[1,0.5],[1,0.75],[1,1],[0.75,1],[0.5,1],[0.25,1],[0,1],[0,0.75],[0,0.5],[0,0.25]];outlineConnect=0;gradientColor=none;html=1;whiteSpace=wrap;fontSize=12;fontStyle=0;container=1;pointerEvents=0;collapsible=0;recursiveResize=0;shape=mxgraph.aws4.group;grIcon=mxgraph.aws4.group_security_group;grStroke=0;strokeColor=#00A4A6;fillColor=#E6F6F7;verticalAlign=top;align=left;spacingLeft=30;fontColor=#147EBA;dashed=0;" vertex="1" parent="ufyZAWr4dvzUXM7paTKl-2">
          <mxGeometry x="80" y="280" width="280" height="120" as="geometry" />
        </mxCell>
        <mxCell id="ufyZAWr4dvzUXM7paTKl-3" value="Availability zone" style="sketch=0;outlineConnect=0;gradientColor=none;html=1;whiteSpace=wrap;fontSize=12;fontStyle=0;shape=mxgraph.aws4.group;grIcon=mxgraph.aws4.group_availability_zone;strokeColor=#545B64;fillColor=none;verticalAlign=top;align=left;spacingLeft=30;fontColor=#545B64;dashed=1;" vertex="1" parent="ufyZAWr4dvzUXM7paTKl-6">
          <mxGeometry x="-40" y="-240" width="360" height="400" as="geometry" />
        </mxCell>
        <mxCell id="ufyZAWr4dvzUXM7paTKl-13" style="rounded=0;orthogonalLoop=1;jettySize=auto;html=1;startArrow=classic;startFill=1;" edge="1" parent="ufyZAWr4dvzUXM7paTKl-6" source="ufyZAWr4dvzUXM7paTKl-9" target="ufyZAWr4dvzUXM7paTKl-10">
          <mxGeometry relative="1" as="geometry" />
        </mxCell>
        <mxCell id="ufyZAWr4dvzUXM7paTKl-9" value="" style="sketch=0;outlineConnect=0;fontColor=#232F3E;gradientColor=none;fillColor=#ED7100;strokeColor=none;dashed=0;verticalLabelPosition=bottom;verticalAlign=top;align=center;html=1;fontSize=12;fontStyle=0;aspect=fixed;pointerEvents=1;shape=mxgraph.aws4.t2_instance;" vertex="1" parent="ufyZAWr4dvzUXM7paTKl-6">
          <mxGeometry x="116" y="-170" width="50" height="50" as="geometry" />
        </mxCell>
        <mxCell id="ufyZAWr4dvzUXM7paTKl-10" value="" style="sketch=0;outlineConnect=0;fontColor=#232F3E;gradientColor=none;fillColor=#ED7100;strokeColor=none;dashed=0;verticalLabelPosition=bottom;verticalAlign=top;align=center;html=1;fontSize=12;fontStyle=0;aspect=fixed;pointerEvents=1;shape=mxgraph.aws4.t2_instance;" vertex="1" parent="ufyZAWr4dvzUXM7paTKl-6">
          <mxGeometry x="116" y="36" width="48" height="48" as="geometry" />
        </mxCell>
        <mxCell id="ufyZAWr4dvzUXM7paTKl-15" value="Ping&lt;br&gt;ICMP Traffic" style="text;html=1;align=center;verticalAlign=middle;resizable=0;points=[];autosize=1;strokeColor=none;fillColor=none;" vertex="1" parent="ufyZAWr4dvzUXM7paTKl-6">
          <mxGeometry x="130" y="-60" width="90" height="40" as="geometry" />
        </mxCell>
        <mxCell id="ufyZAWr4dvzUXM7paTKl-7" value="Public subnet" style="points=[[0,0],[0.25,0],[0.5,0],[0.75,0],[1,0],[1,0.25],[1,0.5],[1,0.75],[1,1],[0.75,1],[0.5,1],[0.25,1],[0,1],[0,0.75],[0,0.5],[0,0.25]];outlineConnect=0;gradientColor=none;html=1;whiteSpace=wrap;fontSize=12;fontStyle=0;container=1;pointerEvents=0;collapsible=0;recursiveResize=0;shape=mxgraph.aws4.group;grIcon=mxgraph.aws4.group_security_group;grStroke=0;strokeColor=#7AA116;fillColor=#F2F6E8;verticalAlign=top;align=left;spacingLeft=30;fontColor=#248814;dashed=0;" vertex="1" parent="ufyZAWr4dvzUXM7paTKl-2">
          <mxGeometry x="560" y="80" width="280" height="120" as="geometry" />
        </mxCell>
        <mxCell id="ufyZAWr4dvzUXM7paTKl-11" value="" style="sketch=0;outlineConnect=0;fontColor=#232F3E;gradientColor=none;fillColor=#ED7100;strokeColor=none;dashed=0;verticalLabelPosition=bottom;verticalAlign=top;align=center;html=1;fontSize=12;fontStyle=0;aspect=fixed;pointerEvents=1;shape=mxgraph.aws4.t2_instance;" vertex="1" parent="ufyZAWr4dvzUXM7paTKl-7">
          <mxGeometry x="116" y="30" width="48" height="48" as="geometry" />
        </mxCell>
        <mxCell id="ufyZAWr4dvzUXM7paTKl-8" value="Private subnet" style="points=[[0,0],[0.25,0],[0.5,0],[0.75,0],[1,0],[1,0.25],[1,0.5],[1,0.75],[1,1],[0.75,1],[0.5,1],[0.25,1],[0,1],[0,0.75],[0,0.5],[0,0.25]];outlineConnect=0;gradientColor=none;html=1;whiteSpace=wrap;fontSize=12;fontStyle=0;container=1;pointerEvents=0;collapsible=0;recursiveResize=0;shape=mxgraph.aws4.group;grIcon=mxgraph.aws4.group_security_group;grStroke=0;strokeColor=#00A4A6;fillColor=#E6F6F7;verticalAlign=top;align=left;spacingLeft=30;fontColor=#147EBA;dashed=0;" vertex="1" parent="ufyZAWr4dvzUXM7paTKl-2">
          <mxGeometry x="560" y="280" width="280" height="120" as="geometry" />
        </mxCell>
        <mxCell id="ufyZAWr4dvzUXM7paTKl-12" value="" style="sketch=0;outlineConnect=0;fontColor=#232F3E;gradientColor=none;fillColor=#ED7100;strokeColor=none;dashed=0;verticalLabelPosition=bottom;verticalAlign=top;align=center;html=1;fontSize=12;fontStyle=0;aspect=fixed;pointerEvents=1;shape=mxgraph.aws4.t2_instance;" vertex="1" parent="ufyZAWr4dvzUXM7paTKl-8">
          <mxGeometry x="116" y="36" width="48" height="48" as="geometry" />
        </mxCell>
        <mxCell id="ufyZAWr4dvzUXM7paTKl-14" style="edgeStyle=orthogonalEdgeStyle;rounded=0;orthogonalLoop=1;jettySize=auto;html=1;startArrow=classic;startFill=1;" edge="1" parent="ufyZAWr4dvzUXM7paTKl-2" source="ufyZAWr4dvzUXM7paTKl-11" target="ufyZAWr4dvzUXM7paTKl-12">
          <mxGeometry relative="1" as="geometry" />
        </mxCell>
        <mxCell id="ufyZAWr4dvzUXM7paTKl-16" value="Ping&lt;br&gt;ICMP Traffic" style="text;html=1;align=center;verticalAlign=middle;resizable=0;points=[];autosize=1;strokeColor=none;fillColor=none;" vertex="1" parent="ufyZAWr4dvzUXM7paTKl-2">
          <mxGeometry x="690" y="220" width="90" height="40" as="geometry" />
        </mxCell>
        <mxCell id="ufyZAWr4dvzUXM7paTKl-19" value="Security Group" style="fontStyle=0;verticalAlign=top;align=center;spacingTop=-2;fillColor=none;rounded=0;whiteSpace=wrap;html=1;strokeColor=#FF0000;strokeWidth=2;dashed=1;container=1;collapsible=0;expand=0;recursiveResize=0;" vertex="1" parent="ufyZAWr4dvzUXM7paTKl-2">
          <mxGeometry x="170" y="310" width="580" height="70" as="geometry" />
        </mxCell>
        <mxCell id="ufyZAWr4dvzUXM7paTKl-28" value="" style="sketch=0;outlineConnect=0;fontColor=#232F3E;gradientColor=none;fillColor=#8C4FFF;strokeColor=none;dashed=0;verticalLabelPosition=bottom;verticalAlign=top;align=center;html=1;fontSize=12;fontStyle=0;aspect=fixed;pointerEvents=1;shape=mxgraph.aws4.route_table;" vertex="1" parent="ufyZAWr4dvzUXM7paTKl-2">
          <mxGeometry x="421" y="10" width="78" height="76" as="geometry" />
        </mxCell>
        <mxCell id="ufyZAWr4dvzUXM7paTKl-17" value="Security Group" style="fontStyle=0;verticalAlign=top;align=center;spacingTop=-2;fillColor=none;rounded=0;whiteSpace=wrap;html=1;strokeColor=#FF0000;strokeWidth=2;dashed=1;container=1;collapsible=0;expand=0;recursiveResize=0;" vertex="1" parent="1">
          <mxGeometry x="280" y="700" width="610" height="70" as="geometry" />
        </mxCell>
        <mxCell id="ufyZAWr4dvzUXM7paTKl-20" value="" style="sketch=0;outlineConnect=0;fontColor=#232F3E;gradientColor=none;fillColor=#232F3D;strokeColor=none;dashed=0;verticalLabelPosition=bottom;verticalAlign=top;align=center;html=1;fontSize=12;fontStyle=0;aspect=fixed;pointerEvents=1;shape=mxgraph.aws4.authenticated_user;" vertex="1" parent="1">
          <mxGeometry x="150" y="300" width="70" height="70" as="geometry" />
        </mxCell>
        <mxCell id="ufyZAWr4dvzUXM7paTKl-21" value="" style="verticalLabelPosition=bottom;sketch=0;aspect=fixed;html=1;verticalAlign=top;strokeColor=none;align=center;outlineConnect=0;shape=mxgraph.citrix.laptop_1;" vertex="1" parent="1">
          <mxGeometry x="500" y="270" width="139.45" height="118" as="geometry" />
        </mxCell>
        <mxCell id="ufyZAWr4dvzUXM7paTKl-22" style="edgeStyle=orthogonalEdgeStyle;rounded=0;orthogonalLoop=1;jettySize=auto;html=1;entryX=0.645;entryY=0.551;entryDx=0;entryDy=0;entryPerimeter=0;" edge="1" parent="1" source="ufyZAWr4dvzUXM7paTKl-20" target="ufyZAWr4dvzUXM7paTKl-21">
          <mxGeometry relative="1" as="geometry" />
        </mxCell>
        <mxCell id="ufyZAWr4dvzUXM7paTKl-23" style="edgeStyle=orthogonalEdgeStyle;rounded=0;orthogonalLoop=1;jettySize=auto;html=1;entryX=0.098;entryY=0.286;entryDx=0;entryDy=0;entryPerimeter=0;" edge="1" parent="1" source="ufyZAWr4dvzUXM7paTKl-21" target="ufyZAWr4dvzUXM7paTKl-17">
          <mxGeometry relative="1" as="geometry" />
        </mxCell>
        <mxCell id="ufyZAWr4dvzUXM7paTKl-24" style="edgeStyle=orthogonalEdgeStyle;rounded=0;orthogonalLoop=1;jettySize=auto;html=1;entryX=0.885;entryY=0.286;entryDx=0;entryDy=0;entryPerimeter=0;" edge="1" parent="1" source="ufyZAWr4dvzUXM7paTKl-21" target="ufyZAWr4dvzUXM7paTKl-17">
          <mxGeometry relative="1" as="geometry" />
        </mxCell>
        <mxCell id="ufyZAWr4dvzUXM7paTKl-25" value="Authenticated User" style="text;html=1;align=center;verticalAlign=middle;resizable=0;points=[];autosize=1;strokeColor=none;fillColor=none;" vertex="1" parent="1">
          <mxGeometry x="115" y="371" width="130" height="30" as="geometry" />
        </mxCell>
        <mxCell id="ufyZAWr4dvzUXM7paTKl-26" value="Laptop" style="text;html=1;align=center;verticalAlign=middle;resizable=0;points=[];autosize=1;strokeColor=none;fillColor=none;" vertex="1" parent="1">
          <mxGeometry x="639.45" y="328" width="60" height="30" as="geometry" />
        </mxCell>
        <mxCell id="ufyZAWr4dvzUXM7paTKl-27" value="SSH Connection" style="text;html=1;align=center;verticalAlign=middle;resizable=0;points=[];autosize=1;strokeColor=none;fillColor=none;" vertex="1" parent="1">
          <mxGeometry x="560" y="448" width="110" height="30" as="geometry" />
        </mxCell>
      </root>
    </mxGraphModel>
  </diagram>
</mxfile>
